# xmcd CD database file
#
# Track frame offsets:
#	150
#	12957
#	22805
#	34855
#	44505
#	59332
#	72127
#	85502
#	95790
#	109340
#	122800
#	137025
#
# Disc length: 1986 seconds
#
# Revision: 0
# Processed by: cddbd v1.5.1PL0 Copyright (c) Steve Scherf et al.
# Submitted via: CdAid (MTCDDB.DLL V2003.12.21)
#
DISCID=9e07c00c
DTITLE=All Star Artists - All Time Country and Western Hits
DYEAR=1987
DGENRE=Country
TTITLE0=Jimmy Dean_Bumming Around
TTITLE1=Stanley Brothers_Next Sunday Darling Is My Birthday
TTITLE2=Webb Pierce_High Geared Daddy
TTITLE3=Stewart Family_Just Out Of Reach
TTITLE4=Minnie Pearl_On Top Of Old Smoky
TTITLE5=Clyde Moody_Shenandoah Waltz
TTITLE6=Reno and Smiley_Money, Marbles and Chalk
TTITLE7=Ferlin Husky_Wise Guys
TTITLE8=Hawkshaw Hawkins_Slow Poke
TTITLE9=Moon Mullican_Sweeter Than The Flowers
TTITLE10=Jimmy Osborne_The Death Of Little Kathy Fiscus
TTITLE11=Wayne Raney_Lonesome Wind Blues
EXTD=ID3G:   2 YEAR: 1987
EXTT0=
EXTT1=
EXTT2=
EXTT3=
EXTT4=
EXTT5=
EXTT6=
EXTT7=
EXTT8=
EXTT9=
EXTT10=
EXTT11=
PLAYORDER=
